<svg width="615" height="277" viewBox="0 0 615 277" fill="none" xmlns="http://www.w3.org/2000/svg">
<path d="M98.6736 106.192C99.168 107.2 99.5719 108.461 99.8852 109.976C100.177 111.446 100.271 112.95 100.167 114.488C100.088 115.968 99.7365 117.329 99.1114 118.57C98.4648 119.767 97.4395 120.574 96.0354 120.991C95.2866 121.214 94.6769 121.119 94.2065 120.706C93.7828 120.28 93.4313 119.782 93.1519 119.212C92.2491 117.37 91.5209 115.502 90.9673 113.607C90.4136 111.712 89.6639 109.8 88.7182 107.871C87.7939 105.986 86.7274 104.193 85.5185 102.493C84.2881 100.749 82.8844 99.3077 81.3073 98.1692C79.777 97.0167 78.0121 96.2606 76.0124 95.9008C74.038 95.4832 71.834 95.6363 69.4002 96.36C65.89 97.4039 63.0134 99.1384 60.7703 101.564C58.5741 103.975 56.8805 106.865 55.6896 110.233C54.5455 113.587 53.827 117.317 53.534 121.423C53.2664 125.471 53.3168 129.676 53.6853 134.037C54.0538 138.398 54.6759 142.785 55.5516 147.196C56.4741 151.594 57.496 155.811 58.6171 159.848C59.7851 163.871 61.0221 167.597 62.328 171.027C63.6125 174.412 64.835 177.289 65.9957 179.656C67.0274 181.761 68.2173 183.969 69.5652 186.281C70.9599 188.579 72.4842 190.813 74.1383 192.984C75.8176 195.096 77.6177 197.073 79.5387 198.913C81.4597 200.753 83.4857 202.26 85.6168 203.435C87.7694 204.654 90.0074 205.445 92.3309 205.809C94.7226 206.203 97.1822 206.024 99.7095 205.272C103.407 204.173 106.35 202.519 108.539 200.311C110.727 198.103 112.363 195.532 113.445 192.598C114.573 189.65 115.203 186.449 115.332 182.994C115.53 179.57 115.464 176.098 115.133 172.58C114.147 171.115 113.207 169.636 112.315 168.143C111.4 166.607 110.567 165.071 109.815 163.537C109.299 162.484 108.712 161.177 108.053 159.615C107.373 158.009 106.72 156.294 106.094 154.47C105.447 152.603 104.893 150.708 104.433 148.786C103.952 146.819 103.617 144.934 103.431 143.131C103.222 141.284 103.238 139.621 103.479 138.143C103.698 136.621 104.208 135.365 105.009 134.373C105.564 133.756 106.141 133.182 106.74 132.653C107.363 132.065 108.12 131.639 109.009 131.375C109.664 131.18 110.244 131.159 110.747 131.31C111.297 131.448 111.723 131.824 112.024 132.438C112.217 132.832 112.34 133.248 112.393 133.684C112.472 134.063 112.514 134.477 112.52 134.927C112.852 139.651 113.706 144.345 115.081 149.01C116.456 153.675 118.251 158.265 120.465 162.781C121.238 164.359 122.267 166.239 123.55 168.419C124.881 170.585 126.346 172.862 127.945 175.25C129.545 177.638 131.27 180.063 133.121 182.527C134.973 184.99 136.83 187.302 138.692 189.46C140.602 191.605 142.451 193.517 144.239 195.195C146.074 196.86 147.786 198.109 149.374 198.943L148.304 199.713C142.273 197.036 136.649 193.66 131.433 189.584C126.286 185.539 121.746 181.037 117.813 176.078C118 181.598 117.513 186.842 116.355 191.808C115.789 193.935 114.985 195.958 113.941 197.876C112.918 199.837 111.682 201.637 110.232 203.273C108.782 204.91 107.097 206.341 105.177 207.565C103.304 208.775 101.173 209.735 98.7865 210.445C95.3231 211.475 91.9781 211.816 88.7515 211.47C85.5717 211.109 82.5602 210.272 79.717 208.957C76.8739 207.642 74.1952 205.952 71.6811 203.887C69.2137 201.807 66.9608 199.564 64.9223 197.156C62.8623 194.704 61.0129 192.19 59.3742 189.613C57.7354 187.036 56.3571 184.607 55.2394 182.328C52.7461 177.242 50.6045 171.725 48.8146 165.777C47.0715 159.815 45.8052 153.787 45.0159 147.692C44.205 141.553 43.9677 135.545 44.304 129.669C44.6656 123.734 45.726 118.295 47.4851 113.351C49.2442 108.407 51.788 104.134 55.1166 100.532C58.4451 96.9302 62.6835 94.3637 67.8318 92.8328C70.9676 91.9003 74.059 91.5336 77.106 91.7327C80.1783 91.874 83.0804 92.5431 85.8123 93.7401C88.5227 94.8933 90.9838 96.5224 93.1957 98.6276C95.4075 100.733 97.2335 103.254 98.6736 106.192ZM197.522 147.025C197.407 148.867 197.189 150.665 196.869 152.418C196.595 154.157 196.095 155.763 195.369 157.235C194.643 158.706 193.645 160.008 192.376 161.139C191.107 162.269 189.443 163.141 187.384 163.753C185.044 164.449 182.763 164.5 180.54 163.905C178.34 163.354 176.201 162.382 174.124 160.99C172.073 159.541 170.114 157.787 168.247 155.73C166.428 153.659 164.703 151.509 163.075 149.281C161.446 147.053 159.956 144.833 158.604 142.623C157.231 140.369 155.999 138.349 154.909 136.563C154.342 137.486 153.889 139.077 153.55 141.338C153.189 143.555 152.966 146.108 152.881 148.997C152.795 151.886 152.864 154.98 153.088 158.279C153.358 161.564 153.817 164.743 154.465 167.816C154.626 168.471 154.703 169.177 154.698 169.932C154.74 170.673 154.655 171.376 154.445 172.041C154.303 172.737 154.014 173.35 153.578 173.882C153.163 174.457 152.581 174.856 151.832 175.079C150.615 175.441 149.533 175.311 148.584 174.689C147.682 174.053 146.867 173.265 146.139 172.326C142.052 167.162 138.481 162.12 135.426 157.202C132.418 152.269 129.667 147.26 127.174 142.174C126.572 140.946 126.266 139.832 126.258 138.829C126.274 137.77 126.517 136.843 126.987 136.051C127.435 135.214 128.109 134.511 129.01 133.942C129.889 133.329 130.89 132.855 132.014 132.521C132.154 132.48 132.365 132.417 132.645 132.333C132.973 132.236 133.299 132.189 133.622 132.194C133.925 132.154 134.202 132.172 134.453 132.248C134.705 132.324 134.861 132.478 134.922 132.711C136.521 138.817 138.805 144.844 141.775 150.792C144.724 156.697 147.846 162.299 151.141 167.599C150.581 165.253 150.116 162.554 149.744 159.499C149.398 156.387 149.193 153.233 149.128 150.038C149.088 146.784 149.217 143.657 149.515 140.654C149.838 137.594 150.388 134.944 151.167 132.703C151.554 131.634 152.006 130.696 152.522 129.889C153.063 129.025 153.943 128.412 155.159 128.05C155.862 127.841 156.511 127.798 157.108 127.922C157.705 128.046 158.241 128.264 158.715 128.575C159.236 128.872 159.696 129.263 160.094 129.747C160.518 130.174 160.895 130.614 161.225 131.069C162.082 132.27 163.122 133.845 164.345 135.792C165.567 137.739 166.901 139.804 168.347 141.987C169.839 144.155 171.412 146.325 173.066 148.495C174.699 150.622 176.375 152.51 178.095 154.158C179.793 155.763 181.494 156.99 183.198 157.84C184.901 158.69 186.525 158.885 188.07 158.426C189.334 158.05 190.443 157.469 191.398 156.682C192.378 155.838 193.235 154.905 193.967 153.884C194.679 152.818 195.276 151.686 195.761 150.487C196.224 149.244 196.605 148.051 196.902 146.908L197.522 147.025ZM249.783 130.73C249.685 132.719 249.415 134.683 248.971 136.623C248.528 138.563 247.812 140.384 246.823 142.085C245.833 143.785 244.528 145.279 242.906 146.565C241.306 147.895 239.265 148.928 236.785 149.666C232.292 151.002 228.121 151.137 224.274 150.071C220.473 148.991 216.741 147.011 213.077 144.132C212.623 144.518 212.158 144.883 211.682 145.225C211.232 145.51 210.792 145.816 210.364 146.145C210.635 146.918 210.875 147.625 211.082 148.267C211.289 148.909 211.475 149.506 211.64 150.06C211.825 150.658 212.009 151.307 212.191 152.006C212.373 152.705 212.44 153.389 212.392 154.056C212.344 154.724 212.125 155.316 211.735 155.834C211.367 156.396 210.692 156.822 209.709 157.115C208.305 157.532 207.118 157.408 206.148 156.742C205.199 156.12 204.325 155.375 203.524 154.508C201.79 152.612 199.888 150.264 197.818 147.464C195.795 144.65 193.799 141.727 191.83 138.695C189.84 135.62 187.965 132.561 186.205 129.518C184.445 126.475 182.973 123.747 181.791 121.336C180.373 118.442 178.972 115.367 177.59 112.111C176.187 108.811 174.913 105.447 173.769 102.02C172.625 98.5927 171.667 95.1604 170.893 91.7233C170.145 88.2284 169.683 84.8244 169.506 81.5111C169.33 78.1979 169.495 75.0343 170.001 72.0203C170.533 68.9485 171.541 66.1371 173.025 63.5859C173.693 62.4328 174.556 61.3475 175.612 60.3301C176.715 59.2987 177.945 58.5813 179.303 58.1777C179.864 58.0107 180.561 57.9543 181.392 58.0086C182.248 58.0051 182.837 58.3322 183.16 58.9898C183.332 59.3406 183.349 59.8128 183.211 60.4064C180.752 71.0336 180.411 81.6591 182.188 92.2829C183.942 102.863 187.485 113.589 192.816 124.462C195.008 128.934 197.336 133.19 199.799 137.23C202.288 141.212 205.013 145.35 207.976 149.643C207.046 147.307 206.11 144.797 205.169 142.113C204.254 139.371 203.478 136.639 202.839 133.915C202.248 131.177 201.874 128.5 201.718 125.884C201.54 123.224 201.736 120.78 202.305 118.551C202.875 116.322 203.861 114.396 205.264 112.773C206.693 111.093 208.717 109.863 211.338 109.083C214.1 108.262 216.769 108.347 219.347 109.339C221.903 110.287 223.826 112.076 225.115 114.707C225.846 116.197 226.309 117.743 226.503 119.343C226.698 120.942 226.673 122.532 226.428 124.112C226.209 125.634 225.817 127.132 225.253 128.606C224.735 130.066 224.096 131.386 223.334 132.567C222.251 134.296 220.983 136.029 219.529 137.768C220.944 138.904 222.421 139.947 223.959 140.896C225.475 141.802 227.021 142.548 228.595 143.134C230.148 143.677 231.733 144.01 233.348 144.132C235.01 144.241 236.683 144.045 238.368 143.544C239.866 143.098 241.209 142.448 242.398 141.592C243.613 140.678 244.669 139.661 245.567 138.54C246.444 137.375 247.174 136.128 247.756 134.799C248.363 133.413 248.832 132.018 249.162 130.613L249.783 130.73ZM211.961 118.393C209.621 119.088 208.046 120.36 207.236 122.209C206.404 124.013 206.013 126.114 206.062 128.511C206.136 130.85 206.528 133.345 207.239 135.997C207.949 138.649 208.689 141.142 209.457 143.476C211.295 141.975 212.93 140.333 214.363 138.551C215.82 136.711 216.943 134.845 217.731 132.952C218.52 131.06 218.961 129.171 219.055 127.284C219.127 125.354 218.723 123.49 217.842 121.692C217.283 120.552 216.461 119.641 215.376 118.959C214.316 118.22 213.178 118.031 211.961 118.393ZM241.614 83.8794C242.044 84.7563 242.264 85.6958 242.272 86.6979C242.281 87.7 242.106 88.6562 241.748 89.5664C241.415 90.4189 240.912 91.1966 240.237 91.8995C239.563 92.6023 238.758 93.0929 237.822 93.3713C236.605 93.7332 235.439 93.6528 234.325 93.1301C233.258 92.5936 232.445 91.7553 231.886 90.6154C231.456 89.7386 231.247 88.821 231.26 87.8627C231.251 86.8606 231.413 85.9333 231.746 85.0808C232.126 84.2144 232.64 83.4587 233.289 82.8136C233.964 82.1107 234.769 81.6201 235.705 81.3417C236.922 80.9799 238.076 81.0383 239.169 81.5171C240.262 81.9959 241.077 82.7834 241.614 83.8794ZM282.68 121.701C282.42 123.687 281.885 125.605 281.075 127.453C280.291 129.244 279.267 130.929 278.005 132.511C276.767 134.034 275.282 135.38 273.549 136.548C271.863 137.703 269.967 138.593 267.86 139.219C265.24 139.999 262.695 140.278 260.227 140.057C257.807 139.823 255.539 139.191 253.426 138.162C251.338 137.075 249.436 135.656 247.72 133.906C246.029 132.098 244.603 130.01 243.443 127.643C242.196 125.1 241.412 122.57 241.089 120.054C240.767 117.537 240.825 115.084 241.262 112.693C241.677 110.259 242.412 107.931 243.468 105.708C244.57 103.471 245.875 101.375 247.383 99.4196L248.516 99.7609C247.469 102.986 246.994 106.392 247.091 109.98C247.234 113.555 248.144 117.052 249.821 120.471C250.788 122.444 251.957 124.282 253.328 125.984C254.724 127.628 256.281 128.999 257.998 130.096C259.762 131.179 261.668 131.893 263.714 132.239C265.761 132.585 267.954 132.41 270.294 131.714C273.056 130.893 275.408 129.565 277.351 127.732C279.341 125.884 280.934 123.828 282.13 121.564L282.68 121.701ZM325.645 108.925C325.41 110.853 324.935 112.728 324.219 114.548C323.549 116.355 322.63 118.035 321.461 119.588C320.339 121.127 318.958 122.467 317.318 123.608C315.7 124.792 313.862 125.691 311.802 126.303C308.76 127.208 305.833 127.526 303.02 127.257C300.253 126.974 297.63 126.273 295.15 125.151C292.648 123.986 290.299 122.475 288.101 120.617C285.903 118.759 283.896 116.743 282.08 114.571C280.242 112.354 278.571 110.038 277.065 107.623C275.559 105.207 274.247 102.859 273.129 100.58C272.097 98.4752 271.138 96.299 270.25 94.0512C269.341 91.7596 268.504 89.3963 267.74 86.9612C266.31 87.4365 264.893 87.883 263.489 88.3005C262.132 88.7041 260.775 89.1077 259.418 89.5113C258.528 89.7758 257.511 90.0531 256.367 90.3432C255.222 90.6334 254.083 90.7712 252.949 90.7566C251.816 90.742 250.771 90.5252 249.815 90.1062C248.859 89.6873 248.091 88.8859 247.51 87.7022C247.188 87.0445 247.07 86.4767 247.158 85.9986C247.198 85.5344 247.41 85.145 247.792 84.8305C248.106 84.486 248.556 84.2014 249.143 83.9766C249.661 83.7219 250.225 83.5041 250.833 83.3232C251.535 83.1144 253.251 82.7299 255.979 82.1698C258.708 81.6096 261.985 80.9113 265.811 80.0748C264.445 74.5535 263.449 69.0223 262.824 63.4815C262.246 57.9267 262.117 52.7408 262.436 47.9237L263.419 47.6314C264.265 52.8556 265.295 58.075 266.511 63.2894C267.773 68.49 269.349 73.6728 271.238 78.8379C274.762 78.0411 278.369 77.1946 282.059 76.2983C285.774 75.3443 289.363 74.3523 292.826 73.3224C297.928 71.8053 302.048 70.5298 305.188 69.4957C308.327 68.4616 310.778 67.6074 312.539 66.9331C314.605 66.1175 316.134 65.462 317.125 64.9665L317.954 66.001C315.446 67.4498 312.531 68.9951 309.206 70.6367C305.86 72.2345 302.259 73.858 298.402 75.5072C294.524 77.1127 290.483 78.716 286.281 80.3172C282.079 81.9185 277.868 83.447 273.648 84.9028C273.984 85.8075 274.378 86.7202 274.83 87.6409C275.259 88.5177 275.689 89.3946 276.119 90.2715C277.151 92.3759 278.384 94.6717 279.818 97.1589C281.298 99.6322 282.954 102.079 284.783 104.498C286.592 106.874 288.566 109.151 290.705 111.327C292.87 113.447 295.187 115.219 297.656 116.645C300.15 118.013 302.776 118.94 305.535 119.426C308.294 119.912 311.171 119.709 314.166 118.819C316.927 117.997 319.128 116.69 320.769 114.896C322.457 113.088 323.899 111.052 325.094 108.787L325.645 108.925Z" fill="white"/>
<path d="M390.991 266.445C389.429 267.741 387.689 268.655 385.773 269.187C383.905 269.716 381.996 270.027 380.045 270.12C373.363 270.44 367.334 269.726 361.958 267.98C356.635 266.28 351.862 263.797 347.639 260.53C343.465 257.26 339.803 253.355 336.655 248.815C333.555 244.273 330.866 239.344 328.586 234.03C326.356 228.713 324.521 223.133 323.081 217.29C321.641 211.446 320.52 205.612 319.718 199.787C318.913 193.914 318.362 188.174 318.067 182.57C317.817 176.914 317.746 171.665 317.854 166.822C317.08 168.178 316.172 170.323 315.13 173.255C314.088 176.188 312.939 179.614 311.681 183.535C310.472 187.452 309.219 191.739 307.922 196.394C306.62 201 305.323 205.655 304.029 210.358C302.784 215.06 301.558 219.687 300.35 224.24C299.187 228.742 298.14 232.847 297.209 236.556C296.326 240.263 295.546 243.403 294.867 245.976C294.241 248.596 293.841 250.349 293.666 251.237C293.517 251.831 293.307 252.574 293.034 253.466C292.811 254.356 292.488 255.227 292.065 256.078C291.691 256.926 291.211 257.658 290.623 258.272C290.083 258.884 289.424 259.209 288.643 259.246C287.765 259.288 287.005 258.958 286.362 258.256C285.723 257.603 285.17 256.798 284.703 255.843C284.285 254.886 283.916 253.927 283.595 252.965C283.323 252.001 283.116 251.229 282.972 250.649C282.518 248.619 282.047 246.052 281.557 242.948C281.068 239.844 280.576 236.399 280.081 232.611C279.636 228.822 279.195 224.787 278.76 220.508C278.321 216.181 277.882 211.853 277.443 207.525C277.049 203.147 276.662 198.866 276.283 194.682C275.95 190.447 275.614 186.505 275.278 182.857C274.986 179.157 274.725 175.847 274.495 172.927C274.265 170.006 274.08 167.669 273.942 165.917C273.061 168.402 272.012 171.555 270.796 175.375C269.628 179.194 268.351 183.481 266.963 188.238C265.625 192.993 264.217 198.117 262.741 203.611C261.31 209.054 259.892 214.668 258.488 220.452C257.132 226.233 255.829 232.061 254.579 237.935C253.377 243.807 252.333 249.5 251.446 255.015C251.338 255.509 251.189 256.102 250.999 256.795C250.861 257.535 250.646 258.229 250.355 258.878C250.063 259.528 249.667 260.084 249.165 260.548C248.715 261.058 248.125 261.33 247.393 261.365C246.711 261.398 246.084 261.208 245.513 260.796C244.942 260.383 244.436 259.87 243.996 259.256C243.608 258.688 243.264 258.045 242.963 257.326C242.714 256.654 242.542 256.027 242.447 255.445C242.107 254.24 241.782 252.912 241.472 251.461C241.211 250.008 240.945 248.506 240.676 246.955C240.46 245.451 240.243 243.946 240.027 242.442C239.814 240.986 239.609 239.628 239.412 238.367C238.35 231.724 237.439 225.147 236.681 218.636C235.972 212.123 235.356 205.556 234.835 198.936C234.32 192.413 233.908 185.934 233.596 179.5C233.333 173.063 233.162 166.548 233.083 159.955C233.08 158.05 233.133 155.922 233.241 153.572C233.346 151.172 233.73 148.906 234.394 146.774C235.107 144.639 236.213 142.827 237.711 141.338C239.258 139.847 241.446 139.034 244.274 138.899C244.957 138.866 245.556 139.009 246.071 139.326C246.581 139.595 246.867 140.119 246.929 140.897L246.986 141.627C246.778 144.569 246.569 147.511 246.36 150.452C246.148 153.345 245.916 156.312 245.667 159.354C245.264 169.145 245.031 178.928 244.97 188.703C244.953 198.427 245.332 208.206 246.107 218.039C246.41 221.884 246.783 225.677 247.225 229.419C247.667 233.16 248.232 236.919 248.922 240.698C251.466 230.12 253.689 220.754 255.592 212.601C257.544 204.446 259.257 197.304 260.733 191.174C262.208 185.045 263.437 179.832 264.42 175.534C265.448 171.185 266.312 167.552 267.012 164.636C267.712 161.72 268.263 159.397 268.666 157.668C269.064 155.89 269.397 154.53 269.666 153.589C269.93 152.599 270.119 151.881 270.23 151.436C270.342 150.991 270.458 150.595 270.577 150.247C271.178 148.557 272.061 147.025 273.226 145.65C274.39 144.275 275.972 143.54 277.972 143.444C279.338 143.379 280.462 143.667 281.345 144.309C282.276 144.948 283.026 145.767 283.595 146.766C284.163 147.765 284.568 148.87 284.81 150.08C285.101 151.287 285.287 152.402 285.368 153.424C285.865 160.974 286.235 168.456 286.477 175.872C286.715 183.238 286.998 190.554 287.325 197.818C287.653 205.083 288.099 212.293 288.664 219.448C289.276 226.602 290.18 233.716 291.374 240.793C292.872 234.956 294.251 229.466 295.51 224.325C296.765 219.134 297.942 214.192 299.041 209.498C300.188 204.801 301.276 200.278 302.304 195.929C303.381 191.578 304.486 187.274 305.619 183.018C306.801 178.76 308.031 174.499 309.311 170.236C310.59 165.972 312.031 161.579 313.633 157.057C314.003 156.159 314.421 155.26 314.889 154.358C315.352 153.407 315.897 152.551 316.522 151.788C317.147 151.025 317.88 150.379 318.719 149.851C319.559 149.322 320.515 149.032 321.588 148.981C323.1 148.908 324.333 149.338 325.288 150.269C326.242 151.201 326.993 152.338 327.539 153.68C328.134 155.019 328.565 156.44 328.83 157.942C329.091 159.396 329.262 160.633 329.343 161.656C329.696 166.134 329.941 171.106 330.078 176.572C330.212 181.989 330.435 187.622 330.75 193.47C331.113 199.316 331.652 205.226 332.368 211.202C333.084 217.178 334.199 222.939 335.713 228.485C337.227 234.032 339.225 239.189 341.706 243.956C344.187 248.724 347.35 252.823 351.194 256.255C355.042 259.736 359.658 262.398 365.042 264.241C370.474 266.083 376.873 266.827 384.237 266.475C385.359 266.421 386.424 266.273 387.433 266.029C388.495 265.832 389.496 265.491 390.437 265.006L390.991 266.445ZM408.859 221.103C408.164 222.847 407.171 224.531 405.88 226.156C404.588 227.782 403.114 229.269 401.458 230.619C399.798 231.919 398.022 232.982 396.128 233.805C394.235 234.628 392.337 235.086 390.435 235.177C387.801 235.303 385.543 234.604 383.661 233.082C381.831 231.606 380.413 229.768 379.408 227.569C377.655 229.558 375.683 231.24 373.49 232.616C371.294 233.942 368.806 234.672 366.026 234.805C363.538 234.924 361.285 234.592 359.265 233.809C357.289 232.975 355.607 231.809 354.216 230.312C352.825 228.815 351.707 227.061 350.863 225.049C350.068 223.035 349.578 220.86 349.394 218.523C349.187 215.895 349.351 213.322 349.887 210.804C350.419 208.238 351.255 205.804 352.396 203.502C353.532 201.151 354.926 198.959 356.577 196.925C358.228 194.892 360.043 193.071 362.021 191.461L362.951 192.077C361.133 195.095 359.754 198.41 358.815 202.022C357.872 205.585 357.544 209.192 357.832 212.843C357.955 214.4 358.256 216.047 358.736 217.783C359.215 219.519 359.905 221.123 360.804 222.595C361.703 224.067 362.827 225.283 364.176 226.245C365.569 227.155 367.242 227.564 369.193 227.471C370.851 227.391 372.415 227.048 373.885 226.44C375.35 225.784 376.752 224.935 378.09 223.894C377.946 223.314 377.829 222.758 377.738 222.225C377.643 221.643 377.573 221.06 377.527 220.476C377.342 218.14 377.484 215.592 377.952 212.833C378.42 210.075 379.11 207.33 380.02 204.599C380.927 201.82 381.992 199.179 383.214 196.678C384.482 194.125 385.802 191.937 387.176 190.112L388.106 190.727C387.28 194.529 386.658 198.443 386.241 202.47C385.824 206.496 385.769 210.456 386.076 214.351C386.214 216.103 386.446 217.802 386.772 219.448C387.142 221.042 387.721 222.481 388.507 223.762C389.339 224.993 390.419 225.967 391.748 226.685C393.074 227.355 394.786 227.64 396.883 227.539C399.224 227.427 401.373 226.738 403.329 225.472C405.281 224.157 406.971 222.611 408.397 220.832L408.859 221.103ZM462.793 217.791C461.967 219.736 460.989 221.615 459.859 223.428C458.729 225.241 457.389 226.869 455.838 228.311C454.287 229.754 452.518 230.913 450.531 231.79C448.548 232.715 446.264 233.24 443.679 233.364C438.997 233.587 435.059 232.701 431.867 230.704C428.723 228.704 425.975 225.831 423.623 222.083C423.057 222.354 422.489 222.601 421.919 222.824C421.394 222.996 420.871 223.192 420.35 223.412C420.318 224.244 420.28 225.003 420.236 225.69C420.192 226.376 420.144 227.013 420.093 227.602C420.045 228.239 419.977 228.927 419.888 229.664C419.8 230.401 419.609 231.094 419.318 231.743C419.026 232.393 418.603 232.926 418.049 233.343C417.498 233.809 416.711 234.067 415.686 234.116C414.223 234.186 413.162 233.772 412.504 232.875C411.85 232.027 411.31 231.076 410.884 230.021C409.968 227.72 409.063 224.929 408.168 221.649C407.322 218.367 406.541 214.984 405.826 211.501C405.107 207.968 404.489 204.48 403.973 201.035C403.456 197.591 403.093 194.53 402.882 191.853C402.628 188.64 402.459 185.252 402.374 181.69C402.285 178.078 402.341 174.436 402.541 170.761C402.741 167.087 403.115 163.454 403.664 159.861C404.258 156.217 405.085 152.732 406.144 149.408C407.204 146.084 408.527 142.991 410.113 140.13C411.744 137.218 413.722 134.681 416.048 132.517C417.097 131.539 418.302 130.675 419.663 129.926C421.072 129.174 422.484 128.765 423.898 128.697C424.484 128.669 425.154 128.784 425.908 129.041C426.708 129.247 427.136 129.715 427.194 130.445C427.225 130.835 427.066 131.306 426.718 131.86C420.5 141.783 416.256 152.223 413.986 163.178C411.713 174.085 411.052 185.574 412.004 197.646C412.395 202.611 412.992 207.396 413.796 211.999C414.644 216.551 415.656 221.316 416.832 226.292C416.828 223.752 416.883 221.037 416.998 218.149C417.158 215.21 417.443 212.313 417.855 209.46C418.315 206.604 418.956 203.861 419.777 201.232C420.594 198.555 421.679 196.182 423.034 194.114C424.389 192.046 426.02 190.38 427.927 189.116C429.88 187.801 432.222 187.079 434.953 186.948C437.83 186.81 440.287 187.548 442.324 189.161C444.356 190.725 445.488 192.967 445.718 195.888C445.849 197.543 445.709 199.186 445.299 200.818C444.889 202.45 444.278 204.019 443.467 205.523C442.7 206.977 441.782 208.364 440.711 209.686C439.689 211.005 438.605 212.156 437.458 213.14C435.81 214.586 433.987 215.993 431.99 217.359C432.889 218.83 433.88 220.224 434.963 221.541C436.042 222.808 437.207 223.925 438.458 224.892C439.705 225.809 441.059 226.526 442.52 227.043C444.029 227.557 445.661 227.772 447.417 227.688C448.978 227.613 450.471 227.298 451.896 226.741C453.365 226.133 454.726 225.384 455.978 224.494C457.225 223.554 458.366 222.498 459.4 221.325C460.478 220.101 461.431 218.834 462.258 217.524L462.793 217.791ZM432.093 196.319C429.655 196.436 427.716 197.31 426.279 198.943C424.837 200.526 423.696 202.511 422.856 204.896C422.061 207.231 421.504 209.798 421.187 212.598C420.869 215.399 420.637 218.048 420.491 220.547C422.76 219.51 424.89 218.285 426.884 216.87C428.923 215.404 430.659 213.831 432.093 212.15C433.527 210.469 434.636 208.706 435.421 206.861C436.202 204.967 436.514 203.022 436.356 201.026C436.257 199.76 435.827 198.657 435.067 197.716C434.353 196.724 433.361 196.259 432.093 196.319ZM522.451 215.378C521.76 217.17 520.874 218.972 519.793 220.782C518.757 222.542 517.563 224.163 516.211 225.644C514.855 227.077 513.334 228.274 511.647 229.234C509.961 230.194 508.117 230.722 506.118 230.818C503.923 230.923 501.975 230.429 500.273 229.338C498.576 228.295 497.093 226.876 495.825 225.08C494.554 223.235 493.456 221.113 492.533 218.715C491.609 216.316 490.802 213.838 490.111 211.281C489.42 208.725 488.802 206.165 488.257 203.601C487.761 201.035 487.282 198.689 486.821 196.561C485.421 198.68 484.178 200.914 483.09 203.262C482.002 205.61 480.971 208.054 479.996 210.592C479.018 213.082 478.067 215.62 477.145 218.204C476.223 220.789 475.225 223.353 474.153 225.896C473.903 226.446 473.656 227.044 473.413 227.691C473.167 228.289 472.868 228.841 472.516 229.346C472.168 229.9 471.739 230.361 471.229 230.727C470.72 231.093 470.099 231.294 469.367 231.329C468.685 231.362 468.09 231.268 467.583 231.048C467.125 230.825 466.71 230.528 466.338 230.155C466.018 229.828 465.743 229.45 465.514 229.021C465.333 228.59 465.178 228.182 465.05 227.798C464.3 225.732 463.556 223.13 462.819 219.989C462.131 216.846 461.474 213.481 460.848 209.896C460.223 206.31 459.667 202.672 459.18 198.982C458.738 195.241 458.393 191.788 458.143 188.624C457.786 184.097 457.713 179.434 457.922 174.636C458.127 169.789 458.659 165.049 459.518 160.415C460.425 155.778 461.671 151.395 463.254 147.263C464.883 143.081 466.893 139.394 469.285 136.201C471.677 133.009 474.485 130.431 477.708 128.47C480.98 126.505 484.713 125.423 488.908 125.222C491.688 125.089 493.948 125.812 495.688 127.39C497.424 128.919 498.411 131.193 498.649 134.211C499.006 138.738 498.544 143.133 497.265 147.396C496.03 151.608 494.319 155.672 492.131 159.588C489.992 163.501 487.544 167.234 484.789 170.786C482.079 174.287 479.447 177.54 476.893 180.545L475.885 179.86C476.996 178.439 478.156 176.698 479.365 174.637C480.618 172.525 481.811 170.269 482.944 167.87C484.121 165.419 485.218 162.875 486.234 160.237C487.246 157.55 488.116 154.918 488.843 152.343C489.57 149.767 490.11 147.299 490.462 144.936C490.81 142.526 490.908 140.347 490.754 138.4C490.674 137.377 490.499 136.408 490.231 135.493C489.963 134.577 489.559 133.791 489.017 133.132C488.472 132.426 487.794 131.896 486.983 131.544C486.217 131.141 485.297 130.965 484.224 131.016C482.078 131.119 480.119 132.043 478.348 133.789C476.625 135.533 475.094 137.854 473.756 140.751C472.414 143.601 471.279 146.904 470.352 150.662C469.473 154.417 468.754 158.336 468.194 162.418C467.684 166.498 467.372 170.617 467.259 174.776C467.146 178.934 467.238 182.888 467.533 186.636C467.733 189.167 467.934 191.723 468.138 194.303C468.341 196.882 468.603 199.582 468.923 202.4C469.292 205.217 469.747 208.2 470.289 211.35C470.88 214.497 471.614 217.907 472.491 221.579C474.199 215.927 476.039 210.391 478.011 204.971C479.979 199.502 482.178 194.486 484.609 189.924C484.949 189.272 485.289 188.621 485.63 187.969C486.019 187.316 486.438 186.734 486.887 186.224C487.333 185.665 487.835 185.201 488.393 184.832C488.952 184.464 489.572 184.263 490.255 184.23C491.084 184.191 491.762 184.402 492.288 184.866C492.81 185.281 493.244 185.822 493.591 186.489C493.937 187.157 494.19 187.878 494.349 188.652C494.556 189.424 494.734 190.124 494.881 190.752C495.188 192.154 495.551 193.969 495.972 196.196C496.392 198.424 496.875 200.819 497.419 203.383C497.96 205.898 498.576 208.434 499.267 210.99C500.007 213.544 500.85 215.849 501.795 217.905C502.786 219.91 503.893 221.543 505.119 222.803C506.344 224.064 507.737 224.657 509.298 224.582C510.566 224.522 511.813 224.193 513.039 223.597C514.265 223.001 515.43 222.261 516.536 221.378C517.641 220.494 518.639 219.494 519.53 218.376C520.47 217.257 521.241 216.169 521.843 215.114L522.451 215.378ZM532.918 166.506C532.995 167.479 532.852 168.463 532.49 169.458C532.128 170.453 531.612 171.357 530.942 172.171C530.316 172.933 529.56 173.58 528.671 174.111C527.783 174.642 526.851 174.931 525.876 174.978C524.608 175.039 523.551 174.674 522.705 173.884C521.908 173.091 521.46 172.062 521.36 170.796C521.283 169.823 521.428 168.863 521.794 167.917C522.156 166.923 522.65 166.044 523.275 165.281C523.949 164.516 524.708 163.894 525.551 163.414C526.44 162.882 527.372 162.594 528.347 162.547C529.615 162.486 530.67 162.827 531.512 163.568C532.354 164.31 532.822 165.289 532.918 166.506ZM557.225 214.009C556.249 215.912 555.042 217.68 553.604 219.312C552.211 220.894 550.634 222.313 548.873 223.57C547.156 224.775 545.275 225.745 543.227 226.478C541.229 227.209 539.132 227.627 536.937 227.731C534.206 227.862 531.731 227.516 529.512 226.694C527.342 225.869 525.462 224.689 523.872 223.153C522.327 221.565 521.078 219.695 520.125 217.542C519.217 215.338 518.659 212.921 518.452 210.293C518.23 207.469 518.433 204.772 519.063 202.201C519.692 199.631 520.652 197.215 521.943 194.955C523.23 192.645 524.775 190.519 526.58 188.576C528.434 186.631 530.425 184.875 532.554 183.307L533.484 183.922C531.316 186.86 529.615 190.117 528.379 193.694C527.192 197.269 526.749 200.954 527.048 204.751C527.221 206.942 527.631 209.048 528.28 211.069C528.974 213.039 529.919 214.777 531.115 216.283C532.359 217.787 533.871 218.961 535.651 219.804C537.431 220.648 539.541 221.011 541.979 220.894C544.857 220.757 547.54 220.018 550.029 218.677C552.567 217.334 554.811 215.688 556.763 213.738L557.225 214.009ZM585.905 184.714C585.947 185.249 585.79 185.745 585.435 186.202C585.075 186.61 584.627 186.827 584.091 186.852C583.652 186.873 583.179 186.774 582.672 186.554C582.161 186.285 581.575 185.996 580.914 185.685C580.302 185.372 579.572 185.114 578.724 184.91C577.92 184.656 577.006 184.553 575.982 184.602C573.592 184.716 571.506 185.573 569.723 187.173C567.984 188.722 566.543 190.623 565.399 192.877C564.304 195.128 563.512 197.511 563.025 200.026C562.538 202.541 562.373 204.797 562.531 206.792C562.642 208.204 562.873 209.586 563.225 210.937C563.572 212.239 564.083 213.437 564.756 214.528C565.475 215.569 566.397 216.404 567.524 217.034C568.647 217.616 570.037 217.867 571.696 217.788C573.451 217.704 575.109 217.307 576.669 216.597C578.224 215.839 579.667 214.89 580.997 213.752C580.923 212.192 581.039 210.549 581.343 208.824C581.693 207.049 582.168 205.316 582.769 203.626C583.367 201.887 584.069 200.241 584.877 198.688C585.733 197.132 586.628 195.746 587.56 194.529L588.557 195.067C588.151 196.748 587.895 198.47 587.789 200.234C587.683 201.998 587.698 203.732 587.832 205.436C587.97 207.188 588.247 208.836 588.662 210.38C589.078 211.924 589.697 213.262 590.521 214.395C591.341 215.48 592.412 216.333 593.734 216.954C595.052 217.526 596.71 217.764 598.71 217.668C601.149 217.552 603.348 216.885 605.308 215.667C607.268 214.45 608.962 212.952 610.388 211.173L610.996 211.438C610.253 213.183 609.235 214.869 607.944 216.494C606.652 218.119 605.178 219.607 603.522 220.956C601.911 222.255 600.159 223.316 598.265 224.139C596.372 224.963 594.474 225.42 592.572 225.511C589.89 225.639 587.634 224.965 585.804 223.489C583.978 222.062 582.656 220.195 581.837 217.889C579.95 220.031 577.794 221.869 575.369 223.402C572.989 224.884 570.409 225.691 567.629 225.824C565.581 225.922 563.721 225.62 562.05 224.918C560.432 224.263 559.037 223.328 557.864 222.114C556.691 220.899 555.745 219.454 555.025 217.779C554.351 216.052 553.938 214.239 553.789 212.341C553.616 210.15 553.781 207.895 554.283 205.574C554.831 203.203 555.626 200.868 556.669 198.571C557.76 196.271 559.081 194.083 560.631 192.005C562.18 189.928 563.895 188.087 565.776 186.482C567.706 184.875 569.758 183.58 571.932 182.597C574.107 181.613 576.364 181.065 578.705 180.954C579.242 180.928 579.906 180.969 580.698 181.078C581.486 181.138 582.257 181.297 583.012 181.554C583.767 181.811 584.409 182.195 584.939 182.708C585.517 183.217 585.839 183.886 585.905 184.714Z" fill="white"/>
</svg>
